<?xml version="1.0" standalone="no"?>
<!DOCTYPE svg PUBLIC "-//W3C//DTD SVG 20010904//EN"
 "http://www.w3.org/TR/2001/REC-SVG-20010904/DTD/svg10.dtd">
<svg version="1.0" xmlns="http://www.w3.org/2000/svg"
 width="360.000000pt" height="360.000000pt" viewBox="0 0 360.000000 360.000000"
 preserveAspectRatio="xMidYMid meet">
<metadata>
Created by potrace 1.11, written by Peter Selinger 2001-2013
</metadata>
<g transform="translate(0.000000,360.000000) scale(0.100000,-0.100000)"
fill="#000000" stroke="none">
<path d="M1590 3308 c0 -37 1 -38 38 -39 92 -2 156 -28 184 -75 9 -16 21 -54
25 -84 11 -68 9 -2132 -1 -2250 -11 -121 -41 -254 -75 -325 -63 -136 -184
-209 -344 -207 -97 1 -108 11 -50 46 148 86 161 303 23 388 -51 31 -71 37
-148 42 -180 13 -310 -102 -295 -260 18 -190 223 -297 553 -288 353 9 641 165
782 424 48 89 81 209 103 380 4 25 8 494 10 1043 3 872 6 1004 19 1051 22 73
58 100 154 111 94 11 93 11 83 76 -1 4 -25 4 -53 2 -64 -6 -893 -6 -960 0
l-48 4 0 -39z"/>
</g>
</svg>
